HIERARCHY
ROOT Hips
{
  OFFSET 0 0.240689 0
  CHANNELS 6 Xposition Yposition Zposition Zrotation Xrotation Yrotation
  JOINT Bip01_Spine0
  {
    OFFSET 0 -24.7459 49.7988
    CHANNELS 6 Xposition Yposition Zposition Zrotation Xrotation Yrotation
    JOINT Bip01_Pelvis
    {
      OFFSET 0 0 0
      CHANNELS 6 Xposition Yposition Zposition Zrotation Xrotation Yrotation
      JOINT Bip01_Spine0_Tail
      {
        OFFSET -6.47486 -3.86022 0
        CHANNELS 6 Xposition Yposition Zposition Zrotation Xrotation Yrotation
        JOINT Bip01_Spine0_Tail1
        {
          OFFSET 10.3837 -0.00825882 0
          CHANNELS 6 Xposition Yposition Zposition Zrotation Xrotation Yrotation
          JOINT Bip01_Spine0_Tail2
          {
            OFFSET 10.3837 -0.00826263 0
            CHANNELS 6 Xposition Yposition Zposition Zrotation Xrotation Yrotation
            JOINT Bip01_Spine0_Tail3
            {
              OFFSET 10.3837 -0.00825882 0
              CHANNELS 6 Xposition Yposition Zposition Zrotation Xrotation Yrotation
              JOINT Bip01_Spine0_Tail4
              {
                OFFSET 10.3837 -0.00826263 0
                CHANNELS 6 Xposition Yposition Zposition Zrotation Xrotation Yrotation
                End Site
                {
                  OFFSET 0 0 0
                }
              }
            }
          }
        }
      }
      JOINT Bip01_R_Thigh
      {
        OFFSET 0 -1.52588e-005 -8.75617
        CHANNELS 6 Xposition Yposition Zposition Zrotation Xrotation Yrotation
        JOINT Bip01_R_Calf
        {
          OFFSET 19.7638 0 0
          CHANNELS 6 Xposition Yposition Zposition Zrotation Xrotation Yrotation
          JOINT Bip01_R_Foot
          {
            OFFSET 18.6534 0 0
            CHANNELS 6 Xposition Yposition Zposition Zrotation Xrotation Yrotation
            JOINT Bip01_R_Toe0
            {
              OFFSET 5.09145 13.9567 0
              CHANNELS 6 Xposition Yposition Zposition Zrotation Xrotation Yrotation
              JOINT Bip01_R_Toe01
              {
                OFFSET 4.28803 0 0
                CHANNELS 6 Xposition Yposition Zposition Zrotation Xrotation Yrotation
                JOINT Bip01_R_Toe02
                {
                  OFFSET 3.85801 0 0
                  CHANNELS 6 Xposition Yposition Zposition Zrotation Xrotation Yrotation
                  End Site
                  {
                    OFFSET 0 0 0
                  }
                }
              }
            }
          }
        }
      }
      JOINT Bip01_L_Thigh
      {
        OFFSET 0 1.52588e-005 8.75617
        CHANNELS 6 Xposition Yposition Zposition Zrotation Xrotation Yrotation
        JOINT Bip01_L_Calf
        {
          OFFSET 19.7638 0 0
          CHANNELS 6 Xposition Yposition Zposition Zrotation Xrotation Yrotation
          JOINT Bip01_L_Foot
          {
            OFFSET 18.6534 0 0
            CHANNELS 6 Xposition Yposition Zposition Zrotation Xrotation Yrotation
            JOINT Bip01_L_Toe0
            {
              OFFSET 5.09144 13.9567 0
              CHANNELS 6 Xposition Yposition Zposition Zrotation Xrotation Yrotation
              JOINT Bip01_L_Toe01
              {
                OFFSET 4.28802 0 0
                CHANNELS 6 Xposition Yposition Zposition Zrotation Xrotation Yrotation
                JOINT Bip01_L_Toe02
                {
                  OFFSET 3.85801 0 0
                  CHANNELS 6 Xposition Yposition Zposition Zrotation Xrotation Yrotation
                  End Site
                  {
                    OFFSET 0 0 0
                  }
                }
              }
            }
          }
        }
      }
      JOINT Bip01_Spine
      {
        OFFSET 9.14835 -0.00640869 -1.1e-005
        CHANNELS 6 Xposition Yposition Zposition Zrotation Xrotation Yrotation
        JOINT Bip01_Spine1
        {
          OFFSET 8.04366 -0.00638199 0
          CHANNELS 6 Xposition Yposition Zposition Zrotation Xrotation Yrotation
          JOINT Bip01_Spine2
          {
            OFFSET 8.04367 -0.00639343 0
            CHANNELS 6 Xposition Yposition Zposition Zrotation Xrotation Yrotation
            JOINT Bip01_Spine3
            {
              OFFSET 8.04304 -0.00831222 0
              CHANNELS 6 Xposition Yposition Zposition Zrotation Xrotation Yrotation
              JOINT Bip01_Neck
              {
                OFFSET 10.6685 1.06813 0
                CHANNELS 6 Xposition Yposition Zposition Zrotation Xrotation Yrotation
                JOINT Bip01_R_Clavicle
                {
                  OFFSET -3.21661 -4.89635 -9.04802
                  CHANNELS 6 Xposition Yposition Zposition Zrotation Xrotation Yrotation
                  JOINT Bip01_R_UpperArm
                  {
                    OFFSET 19.0492 0 0
                    CHANNELS 6 Xposition Yposition Zposition Zrotation Xrotation Yrotation
                    JOINT Bip01_R_Forearm
                    {
                      OFFSET 10.3706 0 0
                      CHANNELS 6 Xposition Yposition Zposition Zrotation Xrotation Yrotation
                      JOINT Bip01_R_Hand
                      {
                        OFFSET 22.8632 0 0
                        CHANNELS 6 Xposition Yposition Zposition Zrotation Xrotation Yrotation
                        JOINT Bip01_R_Finger0
                        {
                          OFFSET 6.48259 0.103651 0.504496
                          CHANNELS 6 Xposition Yposition Zposition Zrotation Xrotation Yrotation
                          JOINT Bip01_R_Finger01
                          {
                            OFFSET 3.66847 0 0
                            CHANNELS 6 Xposition Yposition Zposition Zrotation Xrotation Yrotation
                            End Site
                            {
                              OFFSET 0 0 0
                            }
                          }
                        }
                      }
                    }
                  }
                }
                JOINT Bip01_L_Clavicle
                {
                  OFFSET -3.21661 -4.89641 9.04797
                  CHANNELS 6 Xposition Yposition Zposition Zrotation Xrotation Yrotation
                  JOINT Bip01_L_UpperArm
                  {
                    OFFSET 19.0492 0 0
                    CHANNELS 6 Xposition Yposition Zposition Zrotation Xrotation Yrotation
                    JOINT Bip01_L_Forearm
                    {
                      OFFSET 10.3706 0 0
                      CHANNELS 6 Xposition Yposition Zposition Zrotation Xrotation Yrotation
                      JOINT Bip01_L_Hand
                      {
                        OFFSET 22.8631 0 0
                        CHANNELS 6 Xposition Yposition Zposition Zrotation Xrotation Yrotation
                        JOINT Bip01_L_Finger0
                        {
                          OFFSET 6.48257 0.103655 -0.504492
                          CHANNELS 6 Xposition Yposition Zposition Zrotation Xrotation Yrotation
                          JOINT Bip01_L_Finger01
                          {
                            OFFSET 3.66844 0 0
                            CHANNELS 6 Xposition Yposition Zposition Zrotation Xrotation Yrotation
                            End Site
                            {
                              OFFSET 0 0 0
                            }
                          }
                        }
                      }
                    }
                  }
                }
                JOINT Bip01_Neck1
                {
                  OFFSET 7.52459 -0.00656509 0
                  CHANNELS 6 Xposition Yposition Zposition Zrotation Xrotation Yrotation
                  JOINT Bip01_Neck2
                  {
                    OFFSET 8.4783 -0.00588226 0
                    CHANNELS 6 Xposition Yposition Zposition Zrotation Xrotation Yrotation
                    JOINT Bip01_Head
                    {
                      OFFSET 8.41606 0 0
                      CHANNELS 6 Xposition Yposition Zposition Zrotation Xrotation Yrotation
                      JOINT EyesBlue
                      {
                        OFFSET 0 0 0
                        CHANNELS 6 Xposition Yposition Zposition Zrotation Xrotation Yrotation
                        JOINT EyesBlue_2
                        {
                          OFFSET 0 -0.500007 0
                          CHANNELS 6 Xposition Yposition Zposition Zrotation Xrotation Yrotation
                          End Site
                          {
                            OFFSET 0 0 0
                          }
                        }
                      }
                      JOINT Bip01_Head2_Eyeleds
                      {
                        OFFSET 6.52751 7.61746 2.2e-005
                        CHANNELS 6 Xposition Yposition Zposition Zrotation Xrotation Yrotation
                        End Site
                        {
                          OFFSET 0 0 0
                        }
                      }
                      JOINT Bip01_Head_Muzzle
                      {
                        OFFSET 2.88628 13.9448 3.88994
                        CHANNELS 6 Xposition Yposition Zposition Zrotation Xrotation Yrotation
                        End Site
                        {
                          OFFSET 0 0 0
                        }
                      }
                      JOINT Bip01_Head1_Jaw
                      {
                        OFFSET 0.271065 1.32405 0
                        CHANNELS 6 Xposition Yposition Zposition Zrotation Xrotation Yrotation
                        JOINT _Bip01_Head11_TungeControler
                        {
                          OFFSET 4.61616 5.82872 0
                          CHANNELS 6 Xposition Yposition Zposition Zrotation Xrotation Yrotation
                          JOINT _Bip01_Ponytail3_tunge
                          {
                            OFFSET 5.17785 2.98805 0
                            CHANNELS 6 Xposition Yposition Zposition Zrotation Xrotation Yrotation
                            JOINT Bip01_Ponytail31
                            {
                              OFFSET 5.57569 0 0
                              CHANNELS 6 Xposition Yposition Zposition Zrotation Xrotation Yrotation
                              JOINT Bip01_Ponytail32
                              {
                                OFFSET 2.93165 0 0
                                CHANNELS 6 Xposition Yposition Zposition Zrotation Xrotation Yrotation
                                JOINT Bip01_Ponytail3Nub
                                {
                                  OFFSET 3.30155 0 0
                                  CHANNELS 6 Xposition Yposition Zposition Zrotation Xrotation Yrotation
                                  End Site
                                  {
                                    OFFSET 0 0 0
                                  }
                                }
                              }
                            }
                          }
                        }
                        JOINT Bip01_Head_JawNub
                        {
                          OFFSET 15.5776 -0.000389099 0
                          CHANNELS 6 Xposition Yposition Zposition Zrotation Xrotation Yrotation
                          End Site
                          {
                            OFFSET 0 0 0
                          }
                        }
                      }
                      JOINT Bip01_Ponytail2
                      {
                        OFFSET 9.40334 1.03973 -6.51764
                        CHANNELS 6 Xposition Yposition Zposition Zrotation Xrotation Yrotation
                        JOINT Bip01_Ponytail21
                        {
                          OFFSET 2.77018 -0.00640106 1.33514e-005
                          CHANNELS 6 Xposition Yposition Zposition Zrotation Xrotation Yrotation
                          End Site
                          {
                            OFFSET 0 0 0
                          }
                        }
                      }
                      JOINT Bip01_Ponytail1
                      {
                        OFFSET 9.40368 1.03969 6.51768
                        CHANNELS 6 Xposition Yposition Zposition Zrotation Xrotation Yrotation
                        JOINT Bip01_Ponytail11
                        {
                          OFFSET 2.77018 -0.00640487 0
                          CHANNELS 6 Xposition Yposition Zposition Zrotation Xrotation Yrotation
                          End Site
                          {
                            OFFSET 0 0 0
                          }
                        }
                      }
                    }
                  }
                }
              }
            }
          }
        }
      }
    }
  }
}
MOTION
Frames:	4
Frame Time:	0.0333333
1.37367 -0.256103 -1.28048 -0 -90 -0 0.000951 -28.7008 46.9795 88.7409 -0.00603928 103.026 0 0 0 -89.9997 -0.000328185 -101.487 -6.47532 -3.85985 -8e-006 142.96 9.08621e-005 -3.9e-005 10.3809 -0.0079 1.49768e-009 -17.1635 0.00047734 0.000652795 10.3809 -0.007888 5.11934e-010 -17.4983 0.00126044 0.00172088 10.3807 -0.007797 0.000137 -17.4985 0.000272078 0.000372704 10.3808 -0.007797 0.000132 -17.4991 0.000879062 0.001199 7e-006 -1.1e-005 -8.75617 -111.437 -5.00523 161 19.7638 3e-006 -1.88294e-013 -62.6553 0.000603102 0.00245491 18.6534 3e-006 1e-006 -8.63941 -2.13432 -0.147929 5.09143 13.9567 -1.15509e-006 115.644 10.3604 7.90956 4.288 1.77636e-014 -3.55271e-015 51.5019 0.000719148 0.000258453 3.85803 -1.2e-005 -2.00728e-012 -45 4.69367e-006 1.38352e-005 -1.5e-005 1.1e-005 8.75617 -128.089 3.14308 -163.137 19.7638 1.27898e-013 3e-006 -64.1294 0.000758619 0.00329467 18.6534 -3e-006 9.23706e-014 4.7351 -0.531702 2.44153 5.09143 13.9567 8.00185e-007 86.6432 -10.3592 -7.90975 4.288 1.42109e-014 7.10543e-015 42.0013 -4.01052e-005 3.12385e-006 3.858 1e-006 6.32383e-013 -2.5 -1.5514e-005 8.43298e-007 9.1478 -0.006378 1.2e-005 -4.95438 -0.000236707 -9.20458e-005 8.04417 -0.006385 -8.83974e-010 4.49999 1.60721e-005 -1.86579e-005 8.04456 -0.006343 -5.15081e-011 7.97345 1.1699e-005 -1.85897e-005 8.04246 -0.008255 5.35574e-010 -8.31156 2.22775e-006 2.25941e-005 10.6678 1.06833 2.01564e-006 -20.1631 -4.06873e-005 5.42892e-005 -2.606 -5.24653 -9.04791 -159.877 -74.4175 129.505 19.0492 4.79616e-014 1e-006 85.9452 3.38921 -105.183 10.3706 -9.99999e-007 1e-006 -111.846 0.000409357 -0.00209671 22.8631 -3e-006 1.54543e-013 -14.3443 12.4179 -3.32949 6.48257 0.103619 0.504502 -28.8506 -12.085 -9.77751 3.66844 9.99999e-007 2.96652e-013 40.1087 2.36222e-005 -2.98442e-006 -2.60592 -5.24652 9.04777 -159.882 74.4172 -129.5 19.0492 -1.42109e-014 1e-006 92.4391 -3.85286 102.041 10.3706 1.4122e-013 1e-006 -107.922 0.000107562 -0.000654777 22.8631 9.99999e-007 -1e-006 -15.7532 -19.8132 0.0908801 6.48257 0.103649 -0.504495 -8.97365 14.6403 5.13871 3.66843 2.50466e-013 -3e-006 25.6076 0.000186958 8.60434e-005 7.52862 -0.006282 -3.5606e-009 21.5 2.46217e-005 -5.74604e-005 8.47668 -0.006439 3.00001e-005 14.0006 0.00190566 0.00148612 8.41604 1.42109e-014 8.88179e-016 -110.997 -0.00147077 -0.00178731 -3e-006 0 -3e-006 -23.1098 1.37701e-015 90 2.38419e-006 -0.5 9.42196e-008 77.736 90 12.264 0 0 0 -99.049 4.57764e-005 -180 4.22819 13.8161 3.88787 -22.989 1.37021e-015 90 0 0 0 -73.9062 0.00012207 -180 0 0 0 -138.736 1.8565e-005 -2.64196e-006 0 0 0 156.768 -2.29716 -5.29344 0 0 0 -13.7181 -0.76349 5.57221 0 0 0 -25.1519 -11.7761 9.81023 0 0 0 -26.1943 -3.51476e-006 -3.53468e-006 15.5776 -0.0004 -6.99997e-006 -3.18055e-015 0 -0 9.40549 1.04068 -6.51571 55.0151 -35.439 112.359 2.76859 -0.006118 -0.001373 -12.2058 12.3471 24.4978 9.40584 1.04064 6.51574 55.0156 35.4409 -112.36 2.76858 -0.006113 0.00138 -12.2049 -12.347 -24.4966 
1.38058 -0.257387 -1.28419 -0 -90 -0 0.000951 -28.7008 46.9575 88.7411 -0.00619876 102.847 0 0 0 -89.9997 -0.000328185 -101.487 -6.47532 -3.85985 -8e-006 142.96 0.000642671 -0.285224 10.3809 -0.0079 1.46576e-009 -17.1637 0.000944458 -0.283324 10.3809 -0.007888 5.00847e-010 -17.4985 0.000624889 -0.283163 10.3807 -0.007797 0.000137 -17.5972 0.000308609 -0.282613 10.3808 -0.007797 0.000132 -17.5802 -6.55919e-005 -0.283021 7e-006 -1.1e-005 -8.75617 -111.254 -5.04197 160.986 19.7638 3e-006 -1.66978e-013 -62.6553 0.000603079 0.00245492 18.6534 3e-006 1e-006 -8.87785 -2.15804 -0.18397 5.09143 13.9567 -1.16777e-006 115.905 10.3959 7.86255 4.288 7.10542e-015 3.55271e-015 51.5019 0.000719176 0.000258464 3.85803 -1.2e-005 -2.00373e-012 -45 4.68615e-006 1.38094e-005 -1.5e-005 1.1e-005 8.75617 -127.933 3.17151 -163.124 19.7638 1.1191e-013 3e-006 -64.2355 0.000752574 0.00329606 18.6534 -3e-006 1.03029e-013 4.64209 -0.533664 2.46545 5.09143 13.9567 7.80285e-007 86.8237 -10.3645 -7.8762 4.288 0 -7.10543e-015 42.0387 -3.98453e-005 3.1508e-006 3.858 1e-006 6.46594e-013 -2.5 -1.55104e-005 8.30857e-007 9.1478 -0.006378 1.2e-005 -4.877 -0.000236787 -9.17367e-005 8.04417 -0.006385 -8.79144e-010 4.57739 1.61613e-005 -1.86767e-005 8.04456 -0.006343 -3.40625e-011 8.05082 1.1616e-005 -1.85784e-005 8.04246 -0.008255 5.49727e-010 -8.23418 2.49504e-006 2.25759e-005 10.6678 1.06833 2.00942e-006 -20.0512 -4.11079e-005 5.41906e-005 -2.61654 -5.24131 -9.04791 -159.995 -74.4166 129.502 19.0492 4.79616e-014 1e-006 85.9439 3.3234 -104.895 10.3706 -9.99999e-007 1e-006 -112.017 0.000415832 -0.00209568 22.8631 -3e-006 1.72307e-013 -14.4122 12.6801 -3.28428 6.48257 0.103619 0.504502 -28.8506 -12.085 -9.77751 3.66844 9.99999e-007 2.8777e-013 40.1087 2.34975e-005 -2.83136e-006 -2.61642 -5.24123 9.04777 -160.02 74.4194 -129.476 19.0492 -2.13163e-014 1e-006 92.45 -3.78591 101.915 10.3706 1.5099e-013 1e-006 -108.088 0.000109466 -0.000654548 22.8631 9.99999e-007 -1e-006 -15.8112 -19.959 0.131538 6.48257 0.103649 -0.504495 -8.97365 14.6403 5.13871 3.66843 2.54019e-013 -3e-006 25.6076 0.000186889 8.60863e-005 7.52862 -0.006282 -3.58395e-009 21.3057 2.52227e-005 -5.74557e-005 8.47668 -0.006439 3.00001e-005 13.5253 0.00189312 0.00150189 8.41604 0 2.66454e-015 -110.753 -0.00147834 -0.0017811 -3e-006 -2.13163e-014 -3e-006 -23.1098 1.37701e-015 90 2.38419e-006 -0.5 9.40486e-008 77.7641 90 12.2359 0 0 0 -99.2303 4.57764e-005 -180 4.54175 13.8104 3.88787 -22.989 1.37021e-015 90 0 0 0 -73.9062 0.00012207 -180 0 0 0 -138.736 1.83705e-005 -2.67996e-006 0 0 0 156.768 -2.29716 -5.29344 0 0 0 -13.7181 -0.763489 5.57221 0 0 0 -25.1519 -11.7761 9.81023 0 0 0 -26.1943 -3.53329e-006 -3.55674e-006 15.5776 -0.0004 -6.99997e-006 3.18055e-015 -1.59028e-015 -1.59028e-015 9.40549 1.04068 -6.51571 55.0165 -35.4407 111.615 2.76859 -0.006118 -0.001373 -12.2176 12.4061 24.4586 9.40584 1.04064 6.51574 54.3951 35.5632 -111.428 2.76858 -0.006113 0.00138 -12.0228 -12.8689 -24.382 
1.39536 -0.26094 -1.29469 -0 -90 -0 0.000951 -28.7008 46.9341 88.7411 -0.0064507 102.66 0 0 0 -89.9997 -0.000328185 -101.487 -6.47532 -3.85985 -8e-006 142.96 0.000769508 -0.597785 10.3809 -0.0079 1.43175e-009 -17.1644 0.000586844 -0.595598 10.3809 -0.007888 4.88941e-010 -17.4992 -7.62019e-005 -0.596117 10.3807 -0.007797 0.000137 -17.8133 0.000485769 -0.593821 10.3808 -0.007797 0.000132 -17.7584 -0.000364382 -0.594686 7e-006 -1.1e-005 -8.75617 -111.06 -5.08005 160.97 19.7638 3e-006 -1.74083e-013 -62.6553 0.000603054 0.00245493 18.6534 3e-006 1e-006 -9.11459 -2.18316 -0.220379 5.09143 13.9567 -1.17992e-006 116.192 10.4349 7.81053 4.288 -1.42108e-014 3.55271e-015 51.5019 0.000719219 0.000258477 3.85803 -1.2e-005 -1.98241e-012 -45 4.67046e-006 1.37712e-005 -1.5e-005 1.1e-005 8.75617 -127.773 3.20127 -163.111 19.7638 1.13687e-013 3e-006 -64.3471 0.000746206 0.00329751 18.6534 -3e-006 1.06581e-013 4.54402 -0.535709 2.49206 5.09143 13.9567 7.59354e-007 87.0037 -10.3742 -7.84303 4.288 -1.42109e-014 -1.06581e-014 42.1316 -3.95823e-005 3.18157e-006 3.858 1e-006 6.35936e-013 -2.5 -1.55377e-005 8.18397e-007 9.1478 -0.006378 1.2e-005 -4.79674 -0.000236871 -9.1416e-005 8.04417 -0.006385 -8.74128e-010 4.65763 1.62545e-005 -1.86961e-005 8.04456 -0.006343 -1.58682e-011 8.13106 1.1529e-005 -1.85661e-005 8.04246 -0.008255 5.64372e-010 -8.15393 2.76376e-006 2.25572e-005 10.6678 1.06833 2.00312e-006 -19.9351 -4.15031e-005 5.40924e-005 -2.62762 -5.23577 -9.04791 -160.116 -74.4163 129.502 19.0492 4.79616e-014 1e-006 85.9466 3.26935 -104.592 10.3706 -9.99999e-007 1e-006 -112.186 0.000422237 -0.00209465 22.8631 -3e-006 1.77636e-013 -14.4774 12.954 -3.23458 6.48257 0.103619 0.504502 -28.8506 -12.085 -9.77751 3.66844 9.99999e-007 2.84217e-013 40.1087 2.33622e-005 -2.66679e-006 -2.62749 -5.23567 9.04777 -160.165 74.4219 -129.451 19.0492 -2.13163e-014 1e-006 92.4648 -3.73059 101.784 10.3706 1.34115e-013 1e-006 -108.252 0.000111351 -0.000654309 22.8631 9.99999e-007 -1e-006 -15.866 -20.1126 0.173443 6.48257 0.103649 -0.504495 -8.97365 14.6403 5.13871 3.66843 2.32703e-013 -3e-006 25.6076 0.000186822 8.61295e-005 7.52862 -0.006282 -3.60449e-009 21.1042 2.58134e-005 -5.74366e-005 8.47668 -0.006439 3.00001e-005 13.0245 0.00187978 0.00151839 8.41604 1.42109e-014 2.66454e-015 -110.498 -0.00148625 -0.00177454 -3e-006 7.10542e-015 -3e-006 -23.1098 1.37701e-015 90 2.38419e-006 -0.5 9.38715e-008 77.7932 90 12.2068 0 0 0 -99.4115 3.05176e-005 -180 4.8553 13.8048 3.88787 -22.989 1.37021e-015 90 0 0 0 -73.9062 0.00012207 -180 0 0 0 -138.736 1.81668e-005 -2.72035e-006 0 0 0 156.768 -2.29717 -5.29344 0 0 0 -13.7181 -0.763488 5.57221 0 0 0 -25.1519 -11.7761 9.81023 0 0 0 -26.1943 -3.553e-006 -3.58064e-006 15.5776 -0.0004 -6.99997e-006 -6.36111e-015 7.95139e-016 1.59028e-015 9.40549 1.04068 -6.51571 55.017 -35.4417 110.83 2.76859 -0.006118 -0.001373 -12.2299 12.4675 24.4177 9.40584 1.04064 6.51574 53.7473 35.6815 -110.457 2.76858 -0.006113 0.00138 -11.8294 -13.42 -24.2588 
1.40882 -0.266275 -1.31097 -0 -90 -0 0.000951 -28.7008 46.9098 88.7406 -0.00649217 102.466 0 0 0 -89.9997 -0.000328185 -101.487 -6.47532 -3.85985 -8e-006 142.96 0.000114575 -0.92556 10.3809 -0.0079 1.3966e-009 -17.1656 -1.33006e-005 -0.923904 10.3809 -0.007888 4.76605e-010 -17.5004 -0.000449098 -0.924323 10.3807 -0.007797 0.000137 -18.1144 0.00147749 -0.920589 10.3808 -0.007797 0.000132 -18.0075 0.000894706 -0.921802 7e-006 -1.1e-005 -8.75617 -110.862 -5.11925 160.953 19.7638 3e-006 -1.77636e-013 -62.6553 0.000603028 0.00245494 18.6534 3e-006 1e-006 -9.35014 -2.20954 -0.257345 5.09143 13.9567 -1.19137e-006 116.505 10.4769 7.75385 4.288 2.13163e-014 -3.55271e-015 51.5019 0.000719278 0.000258492 3.85803 -1.2e-005 -1.95755e-012 -45 4.64626e-006 1.37211e-005 -1.5e-005 1.1e-005 8.75617 -127.611 3.23133 -163.097 19.7638 1.24345e-013 3e-006 -64.4618 0.000739664 0.00329898 18.6534 -3e-006 1.10134e-013 4.44477 -0.53781 2.51981 5.09143 13.9567 7.38005e-007 87.1771 -10.3876 -7.81127 4.288 0 0 42.277 -3.9321e-005 3.21526e-006 3.858 1e-006 6.32383e-013 -2.5 -1.55937e-005 8.06162e-007 9.1478 -0.006378 1.2e-005 -4.71174 -0.000236951 -9.10761e-005 8.04417 -0.006385 -8.68034e-010 4.74263 1.63476e-005 -1.87159e-005 8.04456 -0.006343 3.52518e-012 8.21605 1.14325e-005 -1.85523e-005 8.04246 -0.008255 5.7943e-010 -8.06893 3.04222e-006 2.25382e-005 10.6678 1.06833 1.99662e-006 -19.8121 -4.19025e-005 5.39927e-005 -2.63898 -5.23004 -9.04791 -160.24 -74.4165 129.502 19.0492 5.15143e-014 1e-006 85.954 3.2269 -104.282 10.3706 -1e-006 1e-006 -112.352 0.000428548 -0.00209363 22.8631 -3e-006 1.88294e-013 -14.5398 13.2349 -3.18142 6.48257 0.103619 0.504502 -28.8506 -12.085 -9.77751 3.66844 9.99999e-007 2.78888e-013 40.1087 2.3217e-005 -2.49364e-006 -2.63886 -5.22995 9.04777 -160.314 74.4244 -129.425 19.0492 -7.10543e-015 1e-006 92.4821 -3.68695 101.648 10.3706 1.27898e-013 1e-006 -108.414 0.000113208 -0.000654069 22.8631 9.99999e-007 -1e-006 -15.9176 -20.2702 0.215869 6.48257 0.103649 -0.504495 -8.97365 14.6403 5.13871 3.66843 2.39808e-013 -3e-006 25.6076 0.000186738 8.61809e-005 7.52862 -0.006282 -3.62508e-009 20.8907 2.64267e-005 -5.74104e-005 8.47668 -0.006439 3.00001e-005 12.5094 0.0018659 0.00153524 8.41604 0 -4.44089e-015 -110.234 -0.00149438 -0.00176774 -3e-006 1.42108e-014 -3e-006 -23.1098 1.37701e-015 90 2.38419e-006 -0.5 9.36794e-008 77.8248 90 12.1752 0 0 0 -99.5927 3.05176e-005 -180 5.16886 13.7991 3.88787 -22.989 1.37021e-015 90 0 0 0 -73.9062 0.00012207 -180 0 0 0 -138.736 1.79719e-005 -2.76312e-006 0 0 0 156.768 -2.29717 -5.29344 0 0 0 -13.7181 -0.763487 5.57221 0 0 0 -25.1519 -11.7761 9.81023 0 0 0 -26.1943 -3.5737e-006 -3.60458e-006 15.5776 -0.0004 -6.99997e-006 -3.18055e-015 7.95139e-016 1.59028e-015 9.40549 1.04068 -6.51571 55.0181 -35.4418 110.023 2.76859 -0.006118 -0.001373 -12.2427 12.5324 24.3746 9.40584 1.04064 6.51574 53.0582 35.7969 -109.426 2.76858 -0.006113 0.00138 -11.6292 -13.9861 -24.1303 
